<svg width="19" height="18" viewBox="0 0 19 18" fill="none" xmlns="http://www.w3.org/2000/svg">
<path fill-rule="evenodd" clip-rule="evenodd" d="M10.9762 0.602561C9.82849 -0.200852 8.30087 -0.200855 7.15313 0.60256L1.42182 4.61448C0.456305 5.29034 -0.0805463 6.42582 0.0098453 7.60091L0.597361 15.2386C0.708167 16.6791 2.01334 17.7261 3.44355 17.5217L6.0849 17.1444C7.31652 16.9685 8.23134 15.9137 8.23134 14.6695V13.615C8.23134 13.1548 8.60444 12.7817 9.06468 12.7817C9.52491 12.7817 9.89801 13.1548 9.89801 13.615V14.6695C9.89801 15.9137 10.8128 16.9685 12.0445 17.1444L14.6858 17.5217C16.116 17.7261 17.4212 16.6791 17.532 15.2386L18.1195 7.60091C18.2099 6.42582 17.673 5.29034 16.7075 4.61448L10.9762 0.602561ZM8.1089 1.96795C8.68277 1.56624 9.44658 1.56624 10.0204 1.96795L15.7518 5.97987C16.2345 6.3178 16.5029 6.88554 16.4577 7.47308L15.8702 15.1108C15.8333 15.5909 15.3982 15.9399 14.9215 15.8718L12.2802 15.4945C11.8696 15.4358 11.5647 15.0842 11.5647 14.6695V13.615C11.5647 12.2343 10.4454 11.115 9.06468 11.115C7.68396 11.115 6.56468 12.2343 6.56468 13.615V14.6695C6.56468 15.0842 6.25973 15.4358 5.84919 15.4945L3.20785 15.8718C2.73111 15.9399 2.29605 15.5909 2.25912 15.1108L1.6716 7.47308C1.62641 6.88554 1.89483 6.3178 2.37759 5.97987L8.1089 1.96795Z" fill="#F2F4F7"/>
</svg>
