<svg width="33" height="33" viewBox="0 0 33 33" fill="none" xmlns="http://www.w3.org/2000/svg">
<path d="M23.75 0H8.75C6.43012 0.0024816 4.20596 0.925151 2.56556 2.56556C0.925151 4.20596 0.0024816 6.43012 0 8.75V23.75C0.0024816 26.0699 0.925151 28.294 2.56556 29.9344C4.20596 31.5749 6.43012 32.4975 8.75 32.5H23.75C26.0699 32.4975 28.294 31.5749 29.9344 29.9344C31.5749 28.294 32.4975 26.0699 32.5 23.75V8.75C32.4975 6.43012 31.5749 4.20596 29.9344 2.56556C28.294 0.925151 26.0699 0.0024816 23.75 0ZM16.25 23.75C14.7666 23.75 13.3166 23.3101 12.0832 22.486C10.8499 21.6619 9.88856 20.4906 9.3209 19.1201C8.75325 17.7497 8.60472 16.2417 8.89411 14.7868C9.1835 13.332 9.89781 11.9956 10.9467 10.9467C11.9956 9.89781 13.332 9.1835 14.7868 8.89411C16.2417 8.60472 17.7497 8.75325 19.1201 9.3209C20.4906 9.88856 21.6619 10.8499 22.486 12.0832C23.3101 13.3166 23.75 14.7666 23.75 16.25C23.7479 18.2385 22.9571 20.1449 21.551 21.551C20.1449 22.9571 18.2385 23.7479 16.25 23.75ZM25.625 8.75C25.2542 8.75 24.8916 8.64003 24.5833 8.43401C24.275 8.22798 24.0346 7.93514 23.8927 7.59253C23.7508 7.24992 23.7137 6.87292 23.786 6.5092C23.8584 6.14549 24.037 5.8114 24.2992 5.54917C24.5614 5.28695 24.8955 5.10837 25.2592 5.03603C25.6229 4.96368 25.9999 5.00081 26.3425 5.14273C26.6851 5.28464 26.978 5.52496 27.184 5.83331C27.39 6.14165 27.5 6.50416 27.5 6.875C27.5 7.37228 27.3025 7.84919 26.9508 8.20083C26.5992 8.55246 26.1223 8.75 25.625 8.75ZM21.25 16.25C21.25 17.2389 20.9568 18.2056 20.4073 19.0279C19.8579 19.8501 19.077 20.491 18.1634 20.8694C17.2498 21.2478 16.2445 21.3469 15.2745 21.1539C14.3046 20.961 13.4137 20.4848 12.7145 19.7855C12.0152 19.0863 11.539 18.1954 11.3461 17.2255C11.1531 16.2555 11.2522 15.2502 11.6306 14.3366C12.009 13.423 12.6499 12.6421 13.4721 12.0927C14.2944 11.5432 15.2611 11.25 16.25 11.25C17.5761 11.25 18.8479 11.7768 19.7855 12.7145C20.7232 13.6521 21.25 14.9239 21.25 16.25Z" fill="white"/>
</svg>
