<svg width="14" height="14" viewBox="0 0 14 14" fill="none" xmlns="http://www.w3.org/2000/svg">
<path d="M6 0V1.34133C5.18568 1.44381 4.40599 1.73283 3.72162 2.18588C3.03724 2.63894 2.46665 3.24382 2.05426 3.95343C1.64186 4.66304 1.39878 5.45825 1.34393 6.27716C1.28909 7.09608 1.42396 7.9166 1.73806 8.67487C2.05215 9.43313 2.53699 10.1087 3.15483 10.649C3.77268 11.1892 4.50687 11.5796 5.30026 11.7898C6.09364 11.9999 6.92482 12.0242 7.7291 11.8606C8.53338 11.697 9.28907 11.35 9.93733 10.8467L10.886 11.7953C9.69614 12.7702 8.20489 13.302 6.66667 13.3C2.98467 13.3 0 10.3153 0 6.63333C0 3.17667 2.63133 0.334 6 0ZM13.3 7.3C13.171 8.60331 12.6591 9.83925 11.8287 10.852L10.88 9.904C11.4677 9.14907 11.8403 8.24935 11.9587 7.3H13.3ZM7.33467 0C8.86461 0.154252 10.2943 0.832443 11.3816 1.91976C12.4689 3.00708 13.1471 4.43672 13.3013 5.96667H11.9593C11.8109 4.79188 11.2759 3.69984 10.4386 2.86247C9.6014 2.0251 8.50943 1.48997 7.33467 1.34133V0Z" fill="#4778F5"/>
</svg>
