<svg width="33" height="33" viewBox="0 0 33 33" fill="none" xmlns="http://www.w3.org/2000/svg">
<path d="M30 0H2.5C1.83696 0 1.20107 0.263392 0.732233 0.732233C0.263392 1.20107 0 1.83696 0 2.5V30C0 30.663 0.263392 31.2989 0.732233 31.7678C1.20107 32.2366 1.83696 32.5 2.5 32.5H30C30.663 32.5 31.2989 32.2366 31.7678 31.7678C32.2366 31.2989 32.5 30.663 32.5 30V2.5C32.5 1.83696 32.2366 1.20107 31.7678 0.732233C31.2989 0.263392 30.663 0 30 0ZM11.25 23.75C11.25 24.0815 11.1183 24.3995 10.8839 24.6339C10.6495 24.8683 10.3315 25 10 25C9.66848 25 9.35054 24.8683 9.11612 24.6339C8.8817 24.3995 8.75 24.0815 8.75 23.75V13.75C8.75 13.4185 8.8817 13.1005 9.11612 12.8661C9.35054 12.6317 9.66848 12.5 10 12.5C10.3315 12.5 10.6495 12.6317 10.8839 12.8661C11.1183 13.1005 11.25 13.4185 11.25 13.75V23.75ZM10 11.25C9.62916 11.25 9.26665 11.14 8.95831 10.934C8.64996 10.728 8.40964 10.4351 8.26773 10.0925C8.12581 9.74992 8.08868 9.37292 8.16103 9.0092C8.23337 8.64549 8.41195 8.3114 8.67417 8.04917C8.9364 7.78695 9.27049 7.60837 9.6342 7.53603C9.99792 7.46368 10.3749 7.50081 10.7175 7.64273C11.0601 7.78464 11.353 8.02496 11.559 8.33331C11.765 8.64165 11.875 9.00416 11.875 9.375C11.875 9.87228 11.6775 10.3492 11.3258 10.7008C10.9742 11.0525 10.4973 11.25 10 11.25ZM25 23.75C25 24.0815 24.8683 24.3995 24.6339 24.6339C24.3995 24.8683 24.0815 25 23.75 25C23.4185 25 23.1005 24.8683 22.8661 24.6339C22.6317 24.3995 22.5 24.0815 22.5 23.75V18.125C22.5 17.2962 22.1708 16.5013 21.5847 15.9153C20.9987 15.3292 20.2038 15 19.375 15C18.5462 15 17.7513 15.3292 17.1653 15.9153C16.5792 16.5013 16.25 17.2962 16.25 18.125V23.75C16.25 24.0815 16.1183 24.3995 15.8839 24.6339C15.6495 24.8683 15.3315 25 15 25C14.6685 25 14.3505 24.8683 14.1161 24.6339C13.8817 24.3995 13.75 24.0815 13.75 23.75V13.75C13.7516 13.4438 13.8654 13.1489 14.07 12.9211C14.2746 12.6933 14.5557 12.5485 14.86 12.5142C15.1642 12.4799 15.4705 12.5585 15.7207 12.735C15.9708 12.9115 16.1475 13.1737 16.2172 13.4719C17.0628 12.8982 18.0487 12.5658 19.069 12.5102C20.0893 12.4546 21.1054 12.678 22.0084 13.1563C22.9113 13.6347 23.6669 14.35 24.1939 15.2254C24.721 16.1008 24.9997 17.1032 25 18.125V23.75Z" fill="white"/>
</svg>
