<svg width="19" height="19" viewBox="0 0 19 19" fill="none" xmlns="http://www.w3.org/2000/svg">
<path d="M14.3625 1.61377C12.8858 0.59594 11.0958 0 9.16667 0C4.10406 0 0 4.10406 0 9.16667C0 14.2293 4.10406 18.3333 9.16667 18.3333C14.2293 18.3333 18.3333 14.2293 18.3333 9.16667C18.3333 7.2375 17.7374 5.44753 16.7196 3.97079L15.5166 5.17377C16.2452 6.32998 16.6667 7.6991 16.6667 9.16667C16.6667 13.3088 13.3088 16.6667 9.16667 16.6667C5.02453 16.6667 1.66667 13.3088 1.66667 9.16667C1.66667 5.02453 5.02453 1.66667 9.16667 1.66667C10.6342 1.66667 12.0034 2.08818 13.1596 2.81675L14.3625 1.61377Z" fill="#F2F4F7"/>
<path d="M15.8333 0C16.2936 0 16.6667 0.373096 16.6667 0.833333V1.66667H17.5C17.9602 1.66667 18.3333 2.03976 18.3333 2.5C18.3333 2.96024 17.9602 3.33333 17.5 3.33333H16.1785L10.7091 8.80275C11.0251 8.92118 11.25 9.22599 11.25 9.58333C11.25 10.0436 10.8769 10.4167 10.4167 10.4167H8.75C8.28976 10.4167 7.91667 10.0436 7.91667 9.58333V7.91667C7.91667 7.45643 8.28976 7.08333 8.75 7.08333C9.10734 7.08333 9.41215 7.30825 9.53058 7.62424L15 2.15482V0.833333C15 0.373096 15.3731 0 15.8333 0Z" fill="#F2F4F7"/>
<path d="M9.16667 3.33333C10.1713 3.33333 11.1165 3.58728 11.9418 4.03448L10.6893 5.28699C10.2177 5.10173 9.70405 5 9.16667 5C6.86548 5 5 6.86548 5 9.16667C5 11.4679 6.86548 13.3333 9.16667 13.3333C11.4679 13.3333 13.3333 11.4679 13.3333 9.16667C13.3333 8.62928 13.2316 8.11566 13.0463 7.64401L14.2989 6.3915C14.7461 7.21678 15 8.16207 15 9.16667C15 12.3883 12.3883 15 9.16667 15C5.94501 15 3.33333 12.3883 3.33333 9.16667C3.33333 5.94501 5.94501 3.33333 9.16667 3.33333Z" fill="#F2F4F7"/>
</svg>
