<svg width="12" height="14" viewBox="0 0 12 14" fill="none" xmlns="http://www.w3.org/2000/svg">
<path d="M9.33333 9.33333C9.86377 9.33333 10.3725 9.54405 10.7475 9.91912C11.1226 10.2942 11.3333 10.8029 11.3333 11.3333C11.3333 11.8638 11.1226 12.3725 10.7475 12.7475C10.3725 13.1226 9.86377 13.3333 9.33333 13.3333C8.8029 13.3333 8.29419 13.1226 7.91912 12.7475C7.54405 12.3725 7.33333 11.8638 7.33333 11.3333C7.33333 10.8029 7.54405 10.2942 7.91912 9.91912C8.29419 9.54405 8.8029 9.33333 9.33333 9.33333ZM2.66667 6.66667C4.14 6.66667 5.33333 7.86 5.33333 9.33333C5.33333 10.8067 4.14 12 2.66667 12C1.19333 12 0 10.8067 0 9.33333C0 7.86 1.19333 6.66667 2.66667 6.66667ZM9.33333 10.6667C9.15652 10.6667 8.98695 10.7369 8.86193 10.8619C8.73691 10.987 8.66667 11.1565 8.66667 11.3333C8.66667 11.5101 8.73691 11.6797 8.86193 11.8047C8.98695 11.9298 9.15652 12 9.33333 12C9.51014 12 9.67971 11.9298 9.80474 11.8047C9.92976 11.6797 10 11.5101 10 11.3333C10 11.1565 9.92976 10.987 9.80474 10.8619C9.67971 10.7369 9.51014 10.6667 9.33333 10.6667ZM2.66667 8C2.48911 7.99598 2.31254 8.02748 2.14732 8.09265C1.9821 8.15781 1.83156 8.25533 1.70455 8.37947C1.57754 8.50361 1.47661 8.65188 1.40768 8.81556C1.33876 8.97925 1.30323 9.15505 1.30319 9.33266C1.30315 9.51026 1.33858 9.68609 1.40743 9.84981C1.47627 10.0135 1.57712 10.1618 1.70407 10.286C1.83103 10.4103 1.98151 10.5078 2.1467 10.5731C2.31188 10.6383 2.48844 10.6699 2.666 10.666C3.01437 10.6583 3.34589 10.5145 3.58958 10.2654C3.83327 10.0164 3.96977 9.68178 3.96986 9.33333C3.96994 8.98487 3.83361 8.65022 3.59005 8.40102C3.34648 8.15182 3.01504 8.00788 2.66667 8ZM8.33333 0C9.30579 0 10.2384 0.386308 10.9261 1.07394C11.6137 1.76158 12 2.69421 12 3.66667C12 4.63913 11.6137 5.57176 10.9261 6.25939C10.2384 6.94702 9.30579 7.33333 8.33333 7.33333C7.36087 7.33333 6.42824 6.94702 5.74061 6.25939C5.05298 5.57176 4.66667 4.63913 4.66667 3.66667C4.66667 2.69421 5.05298 1.76158 5.74061 1.07394C6.42824 0.386308 7.36087 0 8.33333 0ZM8.33333 1.33333C7.7145 1.33333 7.121 1.57917 6.68342 2.01675C6.24583 2.45434 6 3.04783 6 3.66667C6 4.2855 6.24583 4.879 6.68342 5.31658C7.121 5.75417 7.7145 6 8.33333 6C8.95217 6 9.54566 5.75417 9.98325 5.31658C10.4208 4.879 10.6667 4.2855 10.6667 3.66667C10.6667 3.04783 10.4208 2.45434 9.98325 2.01675C9.54566 1.57917 8.95217 1.33333 8.33333 1.33333Z" fill="#4778F5"/>
</svg>
