<svg width="18" height="19" viewBox="0 0 18 19" fill="none" xmlns="http://www.w3.org/2000/svg">
<path fill-rule="evenodd" clip-rule="evenodd" d="M8.85202 4.15265C6.0906 4.15265 3.85202 6.39123 3.85202 9.15265C3.85202 11.9141 6.0906 14.1527 8.85202 14.1527C11.6134 14.1527 13.852 11.9141 13.852 9.15265C13.852 6.39123 11.6134 4.15265 8.85202 4.15265ZM5.51869 9.15265C5.51869 7.3117 7.01107 5.81932 8.85202 5.81932C10.693 5.81932 12.1854 7.3117 12.1854 9.15265C12.1854 10.9936 10.693 12.486 8.85202 12.486C7.01107 12.486 5.51869 10.9936 5.51869 9.15265Z" fill="#F2F4F7"/>
<path fill-rule="evenodd" clip-rule="evenodd" d="M10.9369 0.843405C9.77443 -0.281135 7.92961 -0.281135 6.76718 0.843405C6.47193 1.12903 6.06139 1.26242 5.65464 1.20489C4.05323 0.97838 2.56074 2.06274 2.2813 3.65577C2.21032 4.06039 1.95659 4.40962 1.59371 4.60215C0.164997 5.36019 -0.405082 7.11472 0.305207 8.56776C0.485616 8.93682 0.485616 9.36849 0.305206 9.73755C-0.405083 11.1906 0.164997 12.9451 1.59371 13.7032C1.95659 13.8957 2.21032 14.2449 2.2813 14.6495C2.56074 16.2426 4.05323 17.3269 5.65464 17.1004C6.06139 17.0429 6.47193 17.1763 6.76718 17.4619C7.92961 18.5864 9.77443 18.5864 10.9369 17.4619C11.2321 17.1763 11.6427 17.0429 12.0494 17.1004C13.6508 17.3269 15.1433 16.2426 15.4227 14.6495C15.4937 14.2449 15.7475 13.8957 16.1103 13.7032C17.539 12.9451 18.1091 11.1906 17.3988 9.73755C17.2184 9.36849 17.2184 8.93682 17.3988 8.56776C18.1091 7.11472 17.539 5.36019 16.1103 4.60215C15.7475 4.40962 15.4937 4.06039 15.4227 3.65577C15.1433 2.06274 13.6508 0.97838 12.0494 1.20489C11.6427 1.26242 11.2321 1.12903 10.9369 0.843405ZM7.92601 2.04128C8.44232 1.5418 9.26173 1.5418 9.77804 2.04128C10.4428 2.68434 11.3671 2.98466 12.2828 2.85513C12.9941 2.75452 13.657 3.23616 13.7811 3.94373C13.9409 4.8547 14.5122 5.64094 15.3292 6.07442C15.9638 6.41112 16.217 7.19042 15.9015 7.83581C15.4953 8.66673 15.4953 9.63858 15.9015 10.4695C16.217 11.1149 15.9638 11.8942 15.3292 12.2309C14.5122 12.6644 13.9409 13.4506 13.7811 14.3616C13.657 15.0691 12.9941 15.5508 12.2828 15.4502C11.3671 15.3206 10.4428 15.621 9.77804 16.264C9.26173 16.7635 8.44232 16.7635 7.92601 16.264C7.26128 15.621 6.33699 15.3206 5.42123 15.4502C4.70993 15.5508 4.04702 15.0691 3.9229 14.3616C3.7631 13.4506 3.19186 12.6644 2.37486 12.2309C1.74027 11.8942 1.48706 11.1149 1.80255 10.4695C2.20872 9.63858 2.20872 8.66672 1.80255 7.83581C1.48706 7.19042 1.74027 6.41112 2.37486 6.07442C3.19186 5.64094 3.7631 4.8547 3.9229 3.94373C4.04702 3.23616 4.70993 2.75452 5.42123 2.85513C6.33699 2.98466 7.26128 2.68434 7.92601 2.04128Z" fill="#F2F4F7"/>
</svg>
