<svg width="18" height="18" viewBox="0 0 18 18" fill="none" xmlns="http://www.w3.org/2000/svg">
<path fill-rule="evenodd" clip-rule="evenodd" d="M7.77614 3.33899e-06L7.75913 1.6502e-06C7.66454 -1.27543e-05 7.59091 -2.40293e-05 7.52125 0.00419459C6.63756 0.0577137 5.86373 0.615456 5.53351 1.43688C5.50748 1.50163 5.4842 1.5715 5.4543 1.66125L5.44893 1.67736L5.42755 1.74151C5.41173 1.78898 5.40731 1.80206 5.40348 1.81267C5.27025 2.18098 4.82753 2.48833 4.35917 2.5002L2.843 2.57438C2.18781 2.65136 1.6268 2.81527 1.15271 3.20103C0.987113 3.33576 0.835763 3.48711 0.701026 3.65271C0.315275 4.1268 0.151362 4.68781 0.0743764 5.343C-2.01104e-05 5.97615 -9.62894e-06 6.77227 3.43441e-06 7.75972L3.73243e-06 7.79911L1.84495e-06 7.82517C-2.3487e-05 8.06176 -4.72289e-05 8.28358 0.0189025 8.47033C0.0398704 8.67697 0.0881139 8.89643 0.219887 9.10836C0.262719 9.17725 0.311224 9.24244 0.364897 9.30326C0.505824 9.46295 0.669492 9.56595 0.833731 9.6421C0.836133 10.988 0.853173 12.3485 0.973962 13.5137C1.04473 14.1964 1.15334 14.8373 1.32562 15.3838C1.49509 15.9214 1.74534 16.4304 2.14146 16.7825C2.82766 17.3924 3.6913 17.6614 4.7694 17.7902C5.82766 17.9167 7.18406 17.9167 8.91567 17.9167H9.00101C10.7326 17.9167 12.089 17.9167 13.1473 17.7902C14.2254 17.6614 15.089 17.3924 15.7752 16.7825C16.1713 16.4304 16.4216 15.9214 16.5911 15.3838C16.7633 14.8373 16.8719 14.1964 16.9427 13.5137C17.0635 12.3485 17.0805 10.988 17.0829 9.6421C17.2472 9.56595 17.4109 9.46295 17.5518 9.30326C17.6054 9.24244 17.654 9.17725 17.6968 9.10836C17.8286 8.89643 17.8768 8.67697 17.8978 8.47033C17.9167 8.28358 17.9167 8.06177 17.9167 7.82518L17.9167 7.75971C17.9167 6.77227 17.9167 5.97615 17.8423 5.343C17.7653 4.68781 17.6014 4.1268 17.2156 3.65271C17.0809 3.48711 16.9296 3.33576 16.764 3.20103C16.2899 2.81527 15.7289 2.65136 15.0737 2.57438L13.5575 2.5002C13.0893 2.48834 12.6468 2.18109 12.5136 1.81265C12.5098 1.80212 12.5052 1.78875 12.4895 1.7415L12.4627 1.66123C12.4328 1.57148 12.4096 1.50163 12.3835 1.43688C12.0533 0.615457 11.2795 0.0577137 10.3958 0.00419459C10.3261 -2.40293e-05 10.2525 -1.27543e-05 10.1579 1.6502e-06L7.77614 3.33899e-06ZM5.26693 3.75L5.29911 3.75H12.6176L12.6497 3.75C13.6687 3.75003 14.3819 3.75169 14.9278 3.81583C15.4658 3.87905 15.7599 3.99555 15.9751 4.17062C16.0744 4.25146 16.1652 4.34227 16.2461 4.44162C16.4211 4.65678 16.5376 4.95085 16.6008 5.48887C16.6657 6.04053 16.6667 6.763 16.6667 7.79911C16.6667 8.07086 16.6659 8.22816 16.6542 8.34414C16.6472 8.41267 16.6384 8.44049 16.6351 8.44853C16.6291 8.45822 16.6223 8.4674 16.6147 8.47598C16.6079 8.48144 16.5838 8.49785 16.5202 8.5242C16.4125 8.56879 16.262 8.61471 16.0017 8.6928L11.6667 9.99332V9.79167C11.6667 9.21637 11.2003 8.75 10.625 8.75H7.29167C6.71637 8.75 6.25 9.21637 6.25 9.79167V9.99332L1.91493 8.6928C1.65464 8.61471 1.50419 8.56879 1.39648 8.5242C1.33285 8.49785 1.30872 8.48144 1.30197 8.47598L6.25 9.99332L1.28155 8.44853C1.27826 8.44049 1.26947 8.41266 1.26252 8.34414C1.25075 8.22817 1.25 8.07086 1.25 7.79911C1.25 6.763 1.25101 6.04053 1.31584 5.48887C1.37905 4.95085 1.49555 4.65678 1.67062 4.44162C1.75146 4.34227 1.84227 4.25146 1.94163 4.17062C2.15678 3.99555 2.45085 3.87905 2.98887 3.81583C3.5348 3.75169 4.24802 3.75003 5.26693 3.75ZM7.77614 1.25C7.65666 1.25 7.6237 1.25028 7.59682 1.25191C7.19514 1.27624 6.8434 1.52975 6.6933 1.90313C6.68325 1.92812 6.67257 1.95931 6.63479 2.07264L6.61115 2.14354C6.59863 2.18113 6.58888 2.21039 6.57894 2.23787C6.54606 2.32876 6.50719 2.4162 6.46298 2.5H11.4541C11.4099 2.41621 11.371 2.32878 11.3381 2.23789C11.3282 2.21041 11.3184 2.18113 11.3059 2.14354L11.2823 2.07264C11.2445 1.95931 11.2338 1.92812 11.2237 1.90313C11.0736 1.52975 10.7219 1.27624 10.3202 1.25191C10.2933 1.25028 10.2604 1.25 10.1409 1.25H7.77614ZM2.08508 10.0489C2.09075 11.2462 2.11485 12.3966 2.2173 13.3848C2.28382 14.0265 2.38115 14.5745 2.51779 15.008C2.65723 15.4503 2.81886 15.7122 2.97191 15.8482C3.38407 16.2146 3.95348 16.4338 4.91773 16.549C5.89315 16.6656 7.17482 16.6667 8.95834 16.6667C10.7419 16.6667 12.0235 16.6656 12.9989 16.549C13.9632 16.4338 14.5326 16.2146 14.9448 15.8482C15.0978 15.7122 15.2594 15.4503 15.3989 15.008C15.5355 14.5745 15.6329 14.0265 15.6994 13.3848C15.8018 12.3966 15.8259 11.2462 15.8316 10.0489L11.6667 11.2984V11.5929C11.6667 12.0188 11.4073 12.4019 11.0119 12.5601L10.4284 12.7934C9.48472 13.1709 8.43196 13.1709 7.48825 12.7934L6.90481 12.5601C6.50933 12.4019 6.25 12.0188 6.25 11.5929V11.2984L2.08508 10.0489ZM7.5 10V11.4519L7.95249 11.6329C8.59818 11.8911 9.31849 11.8911 9.96419 11.6329L10.4167 11.4519V10H7.5Z" fill="white"/>
</svg>
