<svg width="28" height="30" viewBox="0 0 28 30" fill="none" xmlns="http://www.w3.org/2000/svg">
<path d="M27.3444 29.3516C27.2367 29.5476 27.0785 29.7112 26.8861 29.8252C26.6937 29.9393 26.4743 29.9996 26.2506 30H18.7506C18.5402 29.9999 18.3333 29.9468 18.1489 29.8454C17.9645 29.7441 17.8087 29.5979 17.6959 29.4203L11.3694 19.4781L2.17561 29.5906C1.95149 29.8314 1.64151 29.9741 1.31287 29.9878C0.98423 30.0016 0.663423 29.8852 0.420002 29.664C0.17658 29.4428 0.0301625 29.1345 0.0124925 28.8061C-0.00517742 28.4776 0.107325 28.1554 0.325608 27.9094L9.97717 17.2844L0.19592 1.92188C0.0754542 1.73288 0.00801755 1.51497 0.000671735 1.29097C-0.00667408 1.06697 0.0463411 0.845109 0.154166 0.648628C0.261991 0.452147 0.42066 0.288269 0.613557 0.174156C0.806454 0.0600427 1.02648 -0.000108849 1.25061 1.47867e-07H8.75061C8.96099 6.52035e-05 9.16794 0.0532268 9.35231 0.154559C9.53667 0.255892 9.69248 0.402117 9.8053 0.579687L16.1319 10.5219L25.3256 0.409375C25.5497 0.168623 25.8597 0.0259117 26.1883 0.012181C26.517 -0.00154975 26.8378 0.114807 27.0812 0.336025C27.3246 0.557243 27.4711 0.865491 27.4887 1.19394C27.5064 1.52239 27.3939 1.84457 27.1756 2.09063L17.524 12.7078L27.3053 28.0797C27.4251 28.2688 27.4919 28.4866 27.4988 28.7103C27.5057 28.934 27.4523 29.1555 27.3444 29.3516Z" fill="white"/>
</svg>
